<?xml version="1.0" standalone="no"?>
<!DOCTYPE svg PUBLIC "-//W3C//DTD SVG 20010904//EN"
 "http://www.w3.org/TR/2001/REC-SVG-20010904/DTD/svg10.dtd">
<svg version="1.0" xmlns="http://www.w3.org/2000/svg"
 width="512.000000pt" height="512.000000pt" viewBox="0 0 512.000000 512.000000"
 preserveAspectRatio="xMidYMid meet">

<g transform="translate(0.000000,512.000000) scale(0.100000,-0.100000)"
fill="#000000" stroke="none">
<path d="M2190 5114 c-503 -14 -1195 -65 -1370 -100 -329 -67 -609 -330 -701
-659 -31 -111 -73 -559 -100 -1075 -16 -291 -16 -1151 0 -1440 26 -498 68
-952 97 -1065 82 -316 342 -574 665 -660 99 -27 579 -70 1059 -96 291 -16
1150 -16 1440 0 468 25 877 60 1014 87 177 34 328 116 466 254 125 125 201
256 245 421 27 99 70 579 96 1059 16 290 16 1149 0 1440 -25 477 -69 954 -96
1059 -72 279 -287 523 -555 630 -126 50 -282 72 -750 106 -443 32 -1137 50
-1510 39z m-649 -974 c162 -55 271 -184 300 -353 35 -211 -108 -430 -321 -487
-72 -19 -187 -14 -256 11 -269 100 -377 411 -224 649 35 54 106 122 155 148
103 54 242 67 346 32z m2059 -1028 c297 -78 455 -275 527 -657 13 -65 16 -209
20 -758 l4 -677 -30 -30 -29 -30 -286 0 -286 0 -32 29 -33 29 -5 619 c-6 679
-4 656 -70 771 -58 99 -161 148 -299 140 -47 -3 -94 -13 -123 -26 -91 -40
-164 -138 -206 -273 -14 -46 -17 -137 -21 -642 l-6 -589 -33 -29 -32 -29 -276
0 -276 0 -29 29 -29 29 0 1011 0 1011 29 32 29 33 269 3 c254 2 270 1 301 -18
43 -26 52 -54 52 -157 l0 -85 40 51 c69 87 183 165 295 201 132 43 393 49 535
12z m-1888 -40 l33 -32 3 -993 c2 -731 -1 -999 -9 -1020 -7 -15 -23 -37 -37
-47 -23 -19 -41 -20 -294 -20 l-270 0 -34 34 -34 34 0 1004 c0 911 2 1006 16
1027 33 47 60 51 336 48 l258 -2 32 -33z"/>
</g>
</svg>
